<svg width="16" height="17" viewBox="0 0 16 17" fill="none" xmlns="http://www.w3.org/2000/svg">
<path d="M0.140625 5.70044C0.244792 5.60669 0.364583 5.55981 0.5 5.55981C0.635417 5.55981 0.755208 5.60669 0.859375 5.70044L5.5 10.3567L10.1406 5.70044C10.2448 5.60669 10.3646 5.55981 10.5 5.55981C10.6354 5.55981 10.7552 5.60669 10.8594 5.70044C10.9531 5.80461 11 5.9244 11 6.05981C11 6.19523 10.9531 6.31502 10.8594 6.41919L5.85938 11.4192C5.75521 11.5129 5.63542 11.5598 5.5 11.5598C5.36458 11.5598 5.24479 11.5129 5.14062 11.4192L0.140625 6.41919C0.046875 6.31502 0 6.19523 0 6.05981C0 5.9244 0.046875 5.80461 0.140625 5.70044Z" fill="black"/>
</svg>
