<svg width="56" height="39" viewBox="0 0 56 39" fill="none" xmlns="http://www.w3.org/2000/svg">
<g clip-path="url(#clip0_8360_23337)">
<path d="M33.6991 11.9843C33.8033 11.9062 33.9172 11.8476 34.0409 11.8085C34.1646 11.7694 34.2916 11.7499 34.4218 11.7499C34.552 11.7499 34.679 11.7694 34.8027 11.8085C34.9263 11.8476 35.0403 11.9062 35.1444 11.9843C35.2616 12.0494 35.3593 12.134 35.4374 12.2382C35.5155 12.3424 35.5741 12.453 35.6132 12.5702L37.3319 16.8866C37.3319 16.8996 37.3319 16.9062 37.3319 16.9062C37.3319 16.9062 37.3319 16.9094 37.3319 16.9159C37.3319 16.9224 37.3385 16.9257 37.3515 16.9257L41.9609 17.2187C42.5598 17.2577 42.9439 17.5604 43.1132 18.1269C43.2825 18.6933 43.1458 19.1588 42.703 19.5233L39.1679 22.4726C39.1679 22.4726 39.1646 22.4758 39.1581 22.4823C39.1516 22.4888 39.1484 22.4921 39.1484 22.4921C39.1484 22.4921 39.1484 22.4953 39.1484 22.5019C39.1484 22.5084 39.1484 22.5116 39.1484 22.5116L40.3007 27.0038C40.4309 27.5507 40.2681 28.0064 39.8124 28.371C39.3567 28.7356 38.8749 28.7551 38.3671 28.4296L34.4218 25.9296L30.7499 28.2538C30.19 28.6054 29.6594 28.5793 29.1581 28.1757C28.6568 27.772 28.4843 27.2707 28.6405 26.6718L29.6952 22.5116C29.6952 22.5116 29.6952 22.5084 29.6952 22.5019C29.6952 22.4953 29.6952 22.4921 29.6952 22.4921C29.6952 22.4921 29.692 22.4888 29.6855 22.4823C29.679 22.4758 29.6757 22.4726 29.6757 22.4726L26.1405 19.5233C25.6978 19.1588 25.5611 18.6933 25.7304 18.1269C25.8997 17.5604 26.2838 17.2577 26.8827 17.2187L31.4921 16.9257C31.5051 16.9257 31.5116 16.9224 31.5116 16.9159C31.5116 16.9094 31.5116 16.9062 31.5116 16.9062C31.5116 16.9062 31.5116 16.8996 31.5116 16.8866L33.2304 12.5702C33.2694 12.453 33.328 12.3424 33.4062 12.2382C33.4843 12.134 33.5819 12.0494 33.6991 11.9843ZM35.1054 24.8749L39.0312 27.3749C39.0442 27.3749 39.0507 27.3749 39.0507 27.3749C39.0507 27.3749 39.0572 27.3749 39.0702 27.3749C39.0702 27.3619 39.0735 27.3554 39.08 27.3554C39.0865 27.3554 39.0898 27.3489 39.0898 27.3358C39.0898 27.3358 39.0898 27.3326 39.0898 27.3261C39.0898 27.3196 39.0898 27.3163 39.0898 27.3163L37.9374 22.8241C37.9114 22.7069 37.9016 22.5865 37.9081 22.4628C37.9146 22.3391 37.9374 22.2187 37.9765 22.1015C38.0025 21.9843 38.0513 21.8736 38.123 21.7694C38.1946 21.6653 38.276 21.5741 38.3671 21.496L41.9023 18.5663C41.9023 18.5533 41.9055 18.5468 41.912 18.5468C41.9185 18.5468 41.9218 18.5468 41.9218 18.5468C41.9218 18.5468 41.9218 18.5403 41.9218 18.5272C41.9218 18.5272 41.9218 18.524 41.9218 18.5175C41.9218 18.511 41.9218 18.5012 41.9218 18.4882C41.9218 18.4882 41.9185 18.4849 41.912 18.4784C41.9055 18.4719 41.9023 18.4687 41.9023 18.4687C41.9023 18.4687 41.8958 18.4687 41.8827 18.4687L37.2929 18.1757C37.2929 18.1757 37.2896 18.1757 37.2831 18.1757C37.2766 18.1757 37.2734 18.1757 37.2734 18.1757C37.1562 18.1627 37.039 18.1366 36.9218 18.0976C36.8046 18.0585 36.7004 17.9999 36.6093 17.9218C36.5051 17.8437 36.4172 17.759 36.3456 17.6679C36.274 17.5767 36.2122 17.4726 36.1601 17.3554L34.4413 13.0194C34.4413 13.0064 34.4413 12.9999 34.4413 12.9999C34.4413 12.9999 34.4381 12.9999 34.4316 12.9999C34.425 12.9999 34.4218 12.9999 34.4218 12.9999C34.4218 12.9999 34.4185 12.9999 34.412 12.9999C34.4055 12.9999 34.4023 12.9999 34.4023 12.9999C34.4023 12.9999 34.4023 13.0064 34.4023 13.0194L32.6835 17.3554C32.6314 17.4726 32.5696 17.5767 32.498 17.6679C32.4263 17.759 32.3385 17.8437 32.2343 17.9218C32.1431 17.9999 32.039 18.0585 31.9218 18.0976C31.8046 18.1366 31.6874 18.1627 31.5702 18.1757L26.9609 18.4687C26.9478 18.4687 26.9413 18.4687 26.9413 18.4687C26.9413 18.4687 26.9381 18.4719 26.9316 18.4784C26.925 18.4849 26.9218 18.4882 26.9218 18.4882C26.9218 18.5012 26.9218 18.511 26.9218 18.5175C26.9218 18.524 26.9218 18.5272 26.9218 18.5272C26.9218 18.5403 26.9218 18.5468 26.9218 18.5468C26.9218 18.5468 26.925 18.5468 26.9316 18.5468C26.9381 18.5468 26.9413 18.5533 26.9413 18.5663L30.4765 21.496C30.5676 21.5741 30.649 21.6653 30.7206 21.7694C30.7922 21.8736 30.8411 21.9843 30.8671 22.1015C30.9062 22.2187 30.929 22.3391 30.9355 22.4628C30.942 22.5865 30.9322 22.7069 30.9062 22.8241L29.8515 26.9843C29.8385 27.0233 29.8385 27.0624 29.8515 27.1015C29.8645 27.1405 29.884 27.1666 29.9101 27.1796C29.9231 27.1926 29.9361 27.2024 29.9491 27.2089C29.9622 27.2154 29.9752 27.2187 29.9882 27.2187C30.0012 27.2187 30.0142 27.2187 30.0273 27.2187C30.0403 27.2187 30.0598 27.2121 30.0859 27.1991L33.7382 24.8749C33.8424 24.8098 33.953 24.761 34.0702 24.7284C34.1874 24.6959 34.3046 24.6796 34.4218 24.6796C34.539 24.6796 34.6562 24.6959 34.7734 24.7284C34.8905 24.761 35.0012 24.8098 35.1054 24.8749Z" fill="black"/>
</g>
<rect x="37.6602" y="0.5" width="18" height="18" rx="9" fill="#2EBB77"/>
<path d="M46.8612 13.644C46.1492 13.644 45.5252 13.452 44.9892 13.068C44.4612 12.676 44.0492 12.136 43.7532 11.448C43.4572 10.752 43.3092 9.944 43.3092 9.024C43.3092 8.104 43.4572 7.3 43.7532 6.612C44.0492 5.916 44.4612 5.376 44.9892 4.992C45.5172 4.608 46.1372 4.416 46.8492 4.416C47.5612 4.416 48.1812 4.608 48.7092 4.992C49.2372 5.376 49.6492 5.916 49.9452 6.612C50.2492 7.3 50.4012 8.104 50.4012 9.024C50.4012 9.944 50.2532 10.752 49.9572 11.448C49.6612 12.144 49.2452 12.684 48.7092 13.068C48.1812 13.452 47.5652 13.644 46.8612 13.644ZM46.8612 12.552C47.3412 12.552 47.7572 12.408 48.1092 12.12C48.4612 11.824 48.7332 11.412 48.9252 10.884C49.1252 10.356 49.2252 9.736 49.2252 9.024C49.2252 8.312 49.1252 7.692 48.9252 7.164C48.7332 6.636 48.4572 6.228 48.0972 5.94C47.7452 5.652 47.3292 5.508 46.8492 5.508C46.3692 5.508 45.9532 5.652 45.6012 5.94C45.2492 6.228 44.9732 6.636 44.7732 7.164C44.5812 7.692 44.4852 8.312 44.4852 9.024C44.4852 9.728 44.5812 10.344 44.7732 10.872C44.9732 11.4 45.2492 11.812 45.6012 12.108C45.9612 12.404 46.3812 12.552 46.8612 12.552Z" fill="white"/>
<defs>
<clipPath id="clip0_8360_23337">
<rect width="20" height="20" fill="white" transform="matrix(1 0 0 -1 25.6602 30.5)"/>
</clipPath>
</defs>
</svg>
