<svg width="25" height="25" viewBox="0 0 25 25" fill="none" xmlns="http://www.w3.org/2000/svg">
<g clip-path="url(#clip0_10313_12)">
<path d="M17.6063 4.30718C17.5437 4.27588 17.4811 4.25632 17.4185 4.2485C17.3559 4.24067 17.2855 4.23676 17.2072 4.23676C17.1446 4.25241 17.0781 4.27197 17.0077 4.29545C16.9373 4.31892 16.8786 4.34631 16.8316 4.37761C15.5014 5.37921 14.2415 5.75873 13.0521 5.51615C11.8627 5.27357 10.6186 4.87059 9.3196 4.30718C8.6623 4.02548 7.98152 3.75161 7.27727 3.48556C6.57302 3.21951 5.84529 3.05127 5.09409 2.98084C4.34289 2.91042 3.56038 2.96911 2.74658 3.15691C1.94843 3.34471 1.13463 3.75161 0.305176 4.37761H0.281701L0.258226 4.42456L0.1878 4.49499L0.164325 4.51846L0.14085 4.54193C0.14085 4.54193 0.136938 4.54585 0.129113 4.55367C0.121288 4.5615 0.117375 4.56541 0.117375 4.56541L0.0939002 4.61236C0.0939002 4.61236 0.0939002 4.61627 0.0939002 4.6241C0.0939002 4.63192 0.0939002 4.63584 0.0939002 4.63584C0.0782502 4.65149 0.0704252 4.65931 0.0704252 4.65931C0.0704252 4.65931 0.0704252 4.66714 0.0704252 4.68279C0.0547751 4.68279 0.0469501 4.6867 0.0469501 4.69452C0.0469501 4.70235 0.0469501 4.70626 0.0469501 4.70626C0.0469501 4.72191 0.0469501 4.72974 0.0469501 4.72974C0.0469501 4.72974 0.0469501 4.73756 0.0469501 4.75321C0.0469501 4.75321 0.0430376 4.75712 0.0352126 4.76495C0.0273876 4.77277 0.0234751 4.77669 0.0234751 4.77669C0.0234751 4.77669 0.0234751 4.7806 0.0234751 4.78842C0.0234751 4.79625 0.0234751 4.80016 0.0234751 4.80016C0.0234751 4.81581 0.0195625 4.82755 0.0117375 4.83537C0.00391251 4.8432 0 4.84711 0 4.84711V4.89406C0 4.89406 0 4.89797 0 4.9058C0 4.91362 0 4.92536 0 4.94101V20.7632C0 20.8571 0.0195626 20.951 0.0586876 21.0449C0.0978127 21.1388 0.148675 21.2249 0.211276 21.3031C0.289526 21.3657 0.375601 21.4166 0.469501 21.4557C0.563401 21.4948 0.657302 21.5144 0.751202 21.5144C0.845102 21.5144 0.939002 21.4948 1.0329 21.4557C1.1268 21.4166 1.21288 21.3657 1.29113 21.3031C1.35373 21.2249 1.40459 21.1388 1.44372 21.0449C1.48284 20.951 1.5024 20.8571 1.5024 20.7632V16.6316C2.77006 15.7865 3.97511 15.4931 5.11756 15.7513C6.26002 16.0095 7.45724 16.4125 8.70925 16.9602C9.4761 17.2732 10.2703 17.5745 11.092 17.864C11.9136 18.1536 12.7704 18.2983 13.6625 18.2983C14.3041 18.2983 14.9654 18.1927 15.6461 17.9814C16.3269 17.7701 17.0194 17.3984 17.7237 16.8663C17.7706 16.8194 17.8137 16.7764 17.8528 16.7372C17.8919 16.6981 17.9271 16.6472 17.9584 16.5846C17.9741 16.5377 17.9897 16.4868 18.0054 16.4321C18.021 16.3773 18.0288 16.3186 18.0288 16.256V4.98796C18.0288 4.92536 18.021 4.85885 18.0054 4.78842C17.9897 4.718 17.9584 4.65149 17.9115 4.58889C17.8802 4.52629 17.8371 4.47151 17.7824 4.42456C17.7276 4.37761 17.6689 4.33849 17.6063 4.30718Z" fill="#2EBB77"/>
</g>
<defs>
<clipPath id="clip0_10313_12">
<rect width="25" height="25" fill="white" transform="matrix(1 0 0 -1 0 25)"/>
</clipPath>
</defs>
</svg>
