<svg width="15" height="12" viewBox="0 0 15 12" fill="none" xmlns="http://www.w3.org/2000/svg">
<path d="M0.828125 5.92001C0.828125 5.76767 0.883789 5.63583 0.995117 5.52451C1.10645 5.41318 1.23828 5.35751 1.39062 5.35751H13.7656C13.918 5.35751 14.0498 5.41318 14.1611 5.52451C14.2725 5.63583 14.3281 5.76767 14.3281 5.92001C14.3281 6.07236 14.2725 6.20419 14.1611 6.31552C14.0498 6.42685 13.918 6.48251 13.7656 6.48251H1.39062C1.23828 6.48251 1.10645 6.42685 0.995117 6.31552C0.883789 6.20419 0.828125 6.07236 0.828125 5.92001ZM8.29883 0.453217C8.41602 0.347748 8.55078 0.295013 8.70312 0.295013C8.85547 0.295013 8.99023 0.347748 9.10742 0.453217L14.1699 5.51572C14.2754 5.6329 14.3281 5.76767 14.3281 5.92001C14.3281 6.07236 14.2754 6.20712 14.1699 6.32431L9.10742 11.3868C8.99023 11.4923 8.85547 11.545 8.70312 11.545C8.55078 11.545 8.41602 11.4923 8.29883 11.3868C8.19336 11.2696 8.14062 11.1349 8.14062 10.9825C8.14062 10.8302 8.19336 10.6954 8.29883 10.5782L12.9746 5.92001L8.29883 1.26181C8.19336 1.14462 8.14062 1.00986 8.14062 0.857513C8.14062 0.70517 8.19336 0.570404 8.29883 0.453217Z" fill="white"/>
</svg>
