<svg width="60" height="52" viewBox="0 0 60 52" fill="none" xmlns="http://www.w3.org/2000/svg">
<path d="M55.9073 34.5246C56.1423 33.9729 56.0201 33.3426 55.5962 32.9185L49.2837 26.606C48.9412 26.2636 48.386 26.2636 48.0435 26.606C47.7011 26.9485 47.7011 27.5037 48.0435 27.8461L53.8425 33.6452L44.6007 33.4604C43.9821 33.4474 43.3795 33.6912 42.9429 34.1276L27.1371 49.9336C27.0231 50.0476 26.8376 50.0475 26.7237 49.9336L14.7231 37.9329L15.6789 36.1083C15.7622 35.9495 15.89 35.8216 16.0488 35.7385L24.5854 31.2661C25.1025 30.9951 25.4016 30.4648 25.3658 29.882C25.33 29.2993 24.9684 28.8095 24.422 28.6039L16.5694 25.6479L31.0007 11.2167C31.1146 11.1027 31.3001 11.1028 31.414 11.2167L33.4299 13.2325V19.137C32.0708 19.5203 31.0714 20.7705 31.0714 22.2506C31.0714 24.0347 32.5227 25.4861 34.3068 25.4861C36.0909 25.4861 37.5423 24.0347 37.5423 22.2506C37.5423 20.7705 36.5429 19.5203 35.1837 19.137V14.9862L45.2158 25.0181C45.5583 25.3605 46.1135 25.3605 46.4559 25.0181C46.7983 24.6758 46.7983 24.1205 46.4559 23.7781L35.1838 12.506V8.33946C35.1838 4.07556 31.715 0.606689 27.4511 0.606689C23.1873 0.606689 19.7184 4.07556 19.7184 8.33946V20.0192L14.7681 24.9696L1.97854 20.1553C1.43468 19.9506 0.841359 20.0787 0.430383 20.4895C0.0194059 20.9006 -0.108797 21.4939 0.0959296 22.0378L2.16523 27.5348C2.33585 27.9881 2.84187 28.2172 3.2948 28.0466C3.74808 27.876 3.97718 27.3704 3.80655 26.917L1.96461 22.0238L23.1939 30.0152L15.235 34.1849C14.7589 34.4342 14.3753 34.8178 14.1256 35.2943L9.95597 43.2532L5.18738 30.5855C5.01675 30.1322 4.51097 29.9032 4.05781 30.0737C3.60464 30.2443 3.37542 30.75 3.54604 31.2033L8.54433 44.4815C8.74997 45.0279 9.23974 45.3895 9.82251 45.4253C10.398 45.4626 10.9371 45.1628 11.2066 44.6448L13.8703 39.5604L25.4835 51.1737C25.8699 51.5601 26.3838 51.7729 26.9303 51.7729C27.4768 51.7729 27.9907 51.5601 28.377 51.1737L44.1831 35.3677C44.2839 35.267 44.4218 35.2118 44.5657 35.2136L54.5335 35.4131C55.1354 35.4222 55.6722 35.0762 55.9073 34.5246ZM35.7885 22.2506C35.7885 23.0677 35.1237 23.7324 34.3067 23.7324C33.4897 23.7324 32.825 23.0677 32.825 22.2506C32.825 21.7611 33.0646 21.3277 33.4316 21.0577C33.4499 21.5258 33.8341 21.8999 34.3067 21.8999C34.7793 21.8999 35.1635 21.5258 35.1819 21.0577C35.5489 21.3277 35.7885 21.7611 35.7885 22.2506ZM21.4718 8.33955C21.4718 5.04272 24.1539 2.36051 27.4508 2.36051C30.7476 2.36051 33.4298 5.04272 33.4298 8.33955V10.7524L32.6541 9.97669C31.8563 9.17895 30.5583 9.17886 29.7605 9.97669L21.4716 18.2655L21.4718 8.33955Z" fill="#2EBB77"/>
<path d="M55.7168 37.3203C55.4693 36.9978 55.0943 36.8127 54.688 36.8127C54.2817 36.8127 53.9066 36.9978 53.6591 37.3204C52.0591 39.4059 49.375 43.2303 49.375 45.4119C49.375 48.3414 51.7584 50.7249 54.6879 50.7249C57.6175 50.7249 60.001 48.3414 60.001 45.4119C60.001 43.2303 57.3169 39.4059 55.7168 37.3203ZM54.688 48.9711C52.7255 48.9711 51.1288 47.3744 51.1288 45.4118C51.1288 44.3103 52.5133 41.7738 54.688 38.8662C56.8629 41.7738 58.2473 44.3103 58.2473 45.4118C58.2473 47.3744 56.6506 48.9711 54.688 48.9711Z" fill="#2EBB77"/>
</svg>
