<svg width="25" height="26" viewBox="0 0 25 26" fill="none" xmlns="http://www.w3.org/2000/svg">
<g clip-path="url(#clip0_8360_23852)">
<path d="M18.0288 4.93678H1.5024C1.29895 4.93678 1.10724 4.9759 0.927265 5.05415C0.747289 5.1324 0.586877 5.24195 0.446026 5.3828C0.305176 5.52365 0.195625 5.68407 0.117375 5.86404C0.0391251 6.04402 0 6.23573 0 6.43918V18.4584C0 18.6619 0.0391251 18.8536 0.117375 19.0336C0.195625 19.2135 0.305176 19.3739 0.446026 19.5148C0.586877 19.6556 0.747289 19.7652 0.927265 19.8434C1.10724 19.9217 1.29895 19.9608 1.5024 19.9608H7.08947L8.4745 22.2848C8.5371 22.3944 8.61535 22.4922 8.70925 22.5783C8.80315 22.6644 8.9127 22.7387 9.0379 22.8013C9.14745 22.8795 9.26482 22.9343 9.39002 22.9656C9.51522 22.9969 9.64042 23.0126 9.76562 23.0126C9.89083 23.0126 10.016 22.9969 10.1412 22.9656C10.2664 22.9343 10.3838 22.8795 10.4934 22.8013C10.6186 22.7387 10.7281 22.6644 10.822 22.5783C10.9159 22.4922 10.9942 22.3944 11.0568 22.2848L12.4418 19.9608H18.0288C18.2323 19.9608 18.424 19.9217 18.604 19.8434C18.784 19.7652 18.9444 19.6556 19.0852 19.5148C19.2261 19.3739 19.3356 19.2135 19.4139 19.0336C19.4921 18.8536 19.5312 18.6619 19.5312 18.4584V6.43918C19.5312 6.23573 19.4921 6.04402 19.4139 5.86404C19.3356 5.68407 19.2261 5.52365 19.0852 5.3828C18.9444 5.24195 18.784 5.1324 18.604 5.05415C18.424 4.9759 18.2323 4.93678 18.0288 4.93678ZM12.7704 14.7024H6.76082C6.66692 14.7024 6.57302 14.6828 6.47912 14.6437C6.38522 14.6046 6.29914 14.5537 6.22089 14.4911C6.15829 14.4129 6.10743 14.3268 6.0683 14.2329C6.02918 14.139 6.00962 14.0451 6.00962 13.9512C6.00962 13.8573 6.02918 13.7634 6.0683 13.6695C6.10743 13.5756 6.15829 13.4895 6.22089 13.4113C6.29914 13.3487 6.38522 13.2978 6.47912 13.2587C6.57302 13.2196 6.66692 13.2 6.76082 13.2H12.7704C12.8643 13.2 12.9582 13.2196 13.0521 13.2587C13.146 13.2978 13.2321 13.3487 13.3104 13.4113C13.373 13.4895 13.4238 13.5756 13.4629 13.6695C13.5021 13.7634 13.5216 13.8573 13.5216 13.9512C13.5216 14.0451 13.5021 14.139 13.4629 14.2329C13.4238 14.3268 13.373 14.4129 13.3104 14.4911C13.2321 14.5537 13.146 14.6046 13.0521 14.6437C12.9582 14.6828 12.8643 14.7024 12.7704 14.7024ZM12.7704 11.6976H6.76082C6.66692 11.6976 6.57302 11.678 6.47912 11.6389C6.38522 11.5998 6.29914 11.5489 6.22089 11.4863C6.15829 11.4081 6.10743 11.322 6.0683 11.2281C6.02918 11.1342 6.00962 11.0403 6.00962 10.9464C6.00962 10.8525 6.02918 10.7586 6.0683 10.6647C6.10743 10.5708 6.15829 10.4847 6.22089 10.4065C6.29914 10.3439 6.38522 10.293 6.47912 10.2539C6.57302 10.2148 6.66692 10.1952 6.76082 10.1952H12.7704C12.8643 10.1952 12.9582 10.2148 13.0521 10.2539C13.146 10.293 13.2321 10.3439 13.3104 10.4065C13.373 10.4847 13.4238 10.5708 13.4629 10.6647C13.5021 10.7586 13.5216 10.8525 13.5216 10.9464C13.5216 11.0403 13.5021 11.1342 13.4629 11.2281C13.4238 11.322 13.373 11.4081 13.3104 11.4863C13.2321 11.5489 13.146 11.5998 13.0521 11.6389C12.9582 11.678 12.8643 11.6976 12.7704 11.6976Z" fill="#2EBB77"/>
</g>
<defs>
<clipPath id="clip0_8360_23852">
<rect width="25" height="25" fill="white" transform="matrix(1 0 0 -1 0 25.7)"/>
</clipPath>
</defs>
</svg>
