<svg width="26" height="26" viewBox="0 0 26 26" fill="none" xmlns="http://www.w3.org/2000/svg">
<g clip-path="url(#clip0_8360_23119)">
<path d="M10.8842 15.4272C11.385 15.0829 11.8232 14.676 12.1988 14.2065C12.5744 13.737 12.8639 13.2127 13.0674 12.6337C13.2708 12.0703 13.3804 11.4873 13.396 10.8848C13.4117 10.2822 13.3334 9.69145 13.1613 9.1124C12.9891 8.53335 12.727 7.99342 12.3749 7.49262C12.0227 6.99182 11.6041 6.56144 11.119 6.20149C10.6338 5.84154 10.1056 5.56766 9.53439 5.37986C8.96316 5.19206 8.37237 5.09816 7.76202 5.09816C7.15167 5.09816 6.56088 5.19206 5.98965 5.37986C5.41843 5.56766 4.89024 5.84154 4.40509 6.20149C3.91993 6.56144 3.5013 6.99182 3.14917 7.49262C2.79704 7.99342 2.53491 8.53335 2.36276 9.1124C2.1906 9.69145 2.11235 10.2822 2.128 10.8848C2.14365 11.4873 2.25321 12.0703 2.45666 12.6337C2.66011 13.2127 2.94963 13.737 3.32523 14.2065C3.70083 14.676 4.13903 15.0829 4.63984 15.4272C3.77908 15.7402 2.98876 16.1745 2.26886 16.7301C1.54895 17.2856 0.922952 17.939 0.39085 18.6902C0.3439 18.7528 0.308688 18.8154 0.285213 18.878C0.261738 18.9406 0.25 19.0032 0.25 19.0658C0.25 19.1441 0.257825 19.2145 0.273475 19.2771C0.289125 19.3397 0.3126 19.4023 0.3439 19.4649C0.3752 19.5275 0.414325 19.5862 0.461276 19.641C0.508226 19.6957 0.555176 19.7388 0.602126 19.7701C0.664726 19.8014 0.731239 19.8288 0.801664 19.8522C0.872089 19.8757 0.938602 19.8875 1.0012 19.8875H14.5228C14.5854 19.8875 14.6519 19.8757 14.7224 19.8522C14.7928 19.8288 14.8593 19.8014 14.9219 19.7701C14.9689 19.7388 15.0158 19.6957 15.0628 19.641C15.1097 19.5862 15.1488 19.5275 15.1801 19.4649C15.2114 19.4023 15.2349 19.3397 15.2506 19.2771C15.2662 19.2145 15.274 19.1441 15.274 19.0658C15.274 19.0032 15.2623 18.9406 15.2388 18.878C15.2154 18.8154 15.1801 18.7528 15.1332 18.6902C14.6011 17.939 13.9751 17.2856 13.2552 16.7301C12.5353 16.1745 11.745 15.7402 10.8842 15.4272ZM22.7861 18.6902C22.2696 17.939 21.6475 17.2856 20.9198 16.7301C20.1921 16.1745 19.3978 15.7402 18.5371 15.4272C19.1005 15.0516 19.5778 14.5938 19.9691 14.0539C20.3603 13.514 20.6498 12.9232 20.8376 12.2815C21.0098 11.6242 21.0724 10.963 21.0254 10.2979C20.9785 9.63276 20.8142 8.99502 20.5325 8.38467C20.2508 7.77432 19.8752 7.23048 19.4056 6.75315C18.9361 6.27583 18.3962 5.89632 17.7859 5.61461C17.1755 5.33291 16.5339 5.16468 15.8609 5.1099C15.188 5.05513 14.5307 5.12164 13.889 5.30944C13.8264 5.32509 13.7677 5.34856 13.7129 5.37986C13.6582 5.41116 13.6151 5.45029 13.5838 5.49724C13.5369 5.52854 13.4978 5.57158 13.4665 5.62635C13.4352 5.68113 13.4039 5.73199 13.3726 5.77894C13.3569 5.84154 13.3452 5.90414 13.3373 5.96674C13.3295 6.02934 13.3334 6.09194 13.3491 6.15454C13.3647 6.21714 13.3843 6.27583 13.4078 6.3306C13.4312 6.38538 13.4586 6.43624 13.4899 6.48319C13.9125 7.04659 14.245 7.66477 14.4876 8.33772C14.7302 9.01067 14.8671 9.69928 14.8984 10.4035C14.9297 11.1234 14.8554 11.8277 14.6754 12.5163C14.4954 13.2049 14.2177 13.8465 13.8421 14.4412C13.7951 14.5351 13.7638 14.6251 13.7482 14.7112C13.7325 14.7973 13.7325 14.8873 13.7482 14.9812C13.7638 15.0751 13.799 15.1611 13.8538 15.2394C13.9086 15.3176 13.9751 15.3881 14.0533 15.4507C14.1942 15.5602 14.3311 15.6698 14.4641 15.7793C14.5972 15.8889 14.7341 16.0062 14.875 16.1314C14.875 16.1314 14.8789 16.1354 14.8867 16.1432C14.8945 16.151 14.8984 16.1627 14.8984 16.1784C15.3992 16.6322 15.8531 17.137 16.26 17.6925C16.6669 18.2481 17.0112 18.8311 17.2929 19.4414C17.3242 19.504 17.3633 19.5627 17.4103 19.6175C17.4572 19.6723 17.512 19.7231 17.5746 19.7701C17.6372 19.8014 17.7037 19.8288 17.7741 19.8522C17.8446 19.8757 17.9111 19.8875 17.9737 19.8875H22.1757C22.254 19.8875 22.3244 19.8757 22.387 19.8522C22.4496 19.8288 22.5122 19.8014 22.5748 19.7701C22.6217 19.7388 22.6687 19.6957 22.7156 19.641C22.7626 19.5862 22.8095 19.5275 22.8565 19.4649C22.8878 19.4023 22.9073 19.3397 22.9152 19.2771C22.923 19.2145 22.9269 19.1441 22.9269 19.0658C22.9269 19.0032 22.9152 18.9406 22.8917 18.878C22.8682 18.8154 22.833 18.7528 22.7861 18.6902Z" fill="#2EBB77"/>
</g>
<defs>
<clipPath id="clip0_8360_23119">
<rect width="25" height="25" fill="white" transform="matrix(1 0 0 -1 0.25 25.1101)"/>
</clipPath>
</defs>
</svg>
