<svg width="21" height="21" viewBox="0 0 21 21" fill="none" xmlns="http://www.w3.org/2000/svg">
<g clip-path="url(#clip0_8360_23332)">
<path d="M7.84766 3.625C7.02734 3.625 6.25911 3.78125 5.54297 4.09375C4.8138 4.40625 4.18229 4.82943 3.64844 5.36328C3.11458 5.89714 2.69141 6.52865 2.37891 7.25781C2.06641 7.97396 1.91016 8.74219 1.91016 9.5625C1.91016 10.3828 2.06641 11.151 2.37891 11.8672C2.69141 12.5964 3.11458 13.2279 3.64844 13.7617C4.18229 14.2956 4.8138 14.7188 5.54297 15.0312C6.25911 15.3438 7.02734 15.5 7.84766 15.5C8.66797 15.5 9.4362 15.3438 10.1523 15.0312C10.8815 14.7188 11.513 14.2956 12.0469 13.7617C12.5807 13.2279 13.0039 12.5964 13.3164 11.8672C13.6289 11.151 13.7852 10.3828 13.7852 9.5625C13.7852 8.74219 13.6289 7.97396 13.3164 7.25781C13.0039 6.52865 12.5807 5.89714 12.0469 5.36328C11.513 4.82943 10.8815 4.40625 10.1523 4.09375C9.4362 3.78125 8.66797 3.625 7.84766 3.625ZM0.660156 9.5625C0.660156 8.57292 0.848958 7.64193 1.22656 6.76953C1.60417 5.89714 2.11849 5.13542 2.76953 4.48438C3.42057 3.83333 4.18229 3.31901 5.05469 2.94141C5.92708 2.5638 6.85807 2.375 7.84766 2.375C8.83724 2.375 9.76823 2.5638 10.6406 2.94141C11.513 3.31901 12.2747 3.83333 12.9258 4.48438C13.5768 5.13542 14.0911 5.89714 14.4688 6.76953C14.8464 7.64193 15.0352 8.57292 15.0352 9.5625C15.0352 10.5521 14.8464 11.4831 14.4688 12.3555C14.0911 13.2279 13.5768 13.9896 12.9258 14.6406C12.2747 15.2917 11.513 15.806 10.6406 16.1836C9.76823 16.5612 8.83724 16.75 7.84766 16.75C6.85807 16.75 5.92708 16.5612 5.05469 16.1836C4.18229 15.806 3.42057 15.2917 2.76953 14.6406C2.11849 13.9896 1.60417 13.2279 1.22656 12.3555C0.848958 11.4831 0.660156 10.5521 0.660156 9.5625ZM12.0469 13.7617C12.1641 13.6445 12.3105 13.5859 12.4863 13.5859C12.6621 13.5859 12.8086 13.6445 12.9258 13.7617L16.7344 17.5508C16.8516 17.681 16.9102 17.8307 16.9102 18C16.9102 18.1693 16.8516 18.319 16.7344 18.4492C16.6042 18.5664 16.4544 18.625 16.2852 18.625C16.1159 18.625 15.9661 18.5664 15.8359 18.4492L12.0469 14.6406C11.9297 14.5234 11.8711 14.377 11.8711 14.2012C11.8711 14.0254 11.9297 13.8789 12.0469 13.7617Z" fill="black"/>
</g>
<defs>
<clipPath id="clip0_8360_23332">
<rect width="20" height="20" fill="white" transform="matrix(1 0 0 -1 0.660156 20.5)"/>
</clipPath>
</defs>
</svg>
