<svg width="19" height="19" viewBox="0 0 19 19" fill="none" xmlns="http://www.w3.org/2000/svg">
<rect x="0.660156" y="0.5" width="18" height="18" rx="9" fill="#2EBB77"/>
<path d="M9.86123 13.644C9.14923 13.644 8.52523 13.452 7.98923 13.068C7.46123 12.676 7.04923 12.136 6.75323 11.448C6.45723 10.752 6.30923 9.944 6.30923 9.024C6.30923 8.104 6.45723 7.3 6.75323 6.612C7.04923 5.916 7.46123 5.376 7.98923 4.992C8.51723 4.608 9.13723 4.416 9.84923 4.416C10.5612 4.416 11.1812 4.608 11.7092 4.992C12.2372 5.376 12.6492 5.916 12.9452 6.612C13.2492 7.3 13.4012 8.104 13.4012 9.024C13.4012 9.944 13.2532 10.752 12.9572 11.448C12.6612 12.144 12.2452 12.684 11.7092 13.068C11.1812 13.452 10.5652 13.644 9.86123 13.644ZM9.86123 12.552C10.3412 12.552 10.7572 12.408 11.1092 12.12C11.4612 11.824 11.7332 11.412 11.9252 10.884C12.1252 10.356 12.2252 9.736 12.2252 9.024C12.2252 8.312 12.1252 7.692 11.9252 7.164C11.7332 6.636 11.4572 6.228 11.0972 5.94C10.7452 5.652 10.3292 5.508 9.84923 5.508C9.36923 5.508 8.95323 5.652 8.60123 5.94C8.24923 6.228 7.97323 6.636 7.77323 7.164C7.58123 7.692 7.48523 8.312 7.48523 9.024C7.48523 9.728 7.58123 10.344 7.77323 10.872C7.97323 11.4 8.24923 11.812 8.60123 12.108C8.96123 12.404 9.38123 12.552 9.86123 12.552Z" fill="white"/>
</svg>
