<svg width="24" height="44" viewBox="0 0 24 44" fill="none" xmlns="http://www.w3.org/2000/svg">
<path d="M21.5156 17.1849C21.5156 17.4193 21.5156 17.6068 21.5156 17.8412C21.5156 24.3568 16.5938 31.8099 7.54688 31.8099C4.73438 31.8099 2.15625 31.0131 0 29.6068C0.375 29.6537 0.75 29.7006 1.17188 29.7006C3.46875 29.7006 5.57812 28.9037 7.26562 27.5912C5.10938 27.5443 3.28125 26.1381 2.67188 24.1693C3 24.2162 3.28125 24.2631 3.60938 24.2631C4.03125 24.2631 4.5 24.1693 4.875 24.0756C2.625 23.6068 0.9375 21.6381 0.9375 19.2474V19.2006C1.59375 19.5756 2.39062 19.7631 3.1875 19.8099C1.82812 18.9193 0.984375 17.4193 0.984375 15.7318C0.984375 14.7943 1.21875 13.9506 1.64062 13.2474C4.07812 16.2006 7.73438 18.1693 11.8125 18.4037C11.7188 18.0287 11.6719 17.6537 11.6719 17.2787C11.6719 14.5599 13.875 12.3568 16.5938 12.3568C18 12.3568 19.2656 12.9193 20.2031 13.9037C21.2812 13.6693 22.3594 13.2474 23.2969 12.6849C22.9219 13.8568 22.1719 14.7943 21.1406 15.4037C22.125 15.3099 23.1094 15.0287 23.9531 14.6537C23.2969 15.6381 22.4531 16.4818 21.5156 17.1849Z" fill="#9B9B9B"/>
</svg>
