<svg width="14" height="12" viewBox="0 0 14 12" fill="none" xmlns="http://www.w3.org/2000/svg">
<path d="M0.296875 5.92001C0.296875 5.76767 0.352539 5.63583 0.463867 5.52451C0.575195 5.41318 0.707031 5.35751 0.859375 5.35751H13.2344C13.3867 5.35751 13.5186 5.41318 13.6299 5.52451C13.7412 5.63583 13.7969 5.76767 13.7969 5.92001C13.7969 6.07236 13.7412 6.20419 13.6299 6.31552C13.5186 6.42685 13.3867 6.48251 13.2344 6.48251H0.859375C0.707031 6.48251 0.575195 6.42685 0.463867 6.31552C0.352539 6.20419 0.296875 6.07236 0.296875 5.92001ZM7.76758 0.453217C7.88477 0.347748 8.01953 0.295013 8.17188 0.295013C8.32422 0.295013 8.45898 0.347748 8.57617 0.453217L13.6387 5.51572C13.7441 5.6329 13.7969 5.76767 13.7969 5.92001C13.7969 6.07236 13.7441 6.20712 13.6387 6.32431L8.57617 11.3868C8.45898 11.4923 8.32422 11.545 8.17188 11.545C8.01953 11.545 7.88477 11.4923 7.76758 11.3868C7.66211 11.2696 7.60938 11.1349 7.60938 10.9825C7.60938 10.8302 7.66211 10.6954 7.76758 10.5782L12.4434 5.92001L7.76758 1.26181C7.66211 1.14462 7.60938 1.00986 7.60938 0.857513C7.60938 0.70517 7.66211 0.570404 7.76758 0.453217Z" fill="black"/>
</svg>
