<svg width="64" height="61" viewBox="0 0 64 61" fill="none" xmlns="http://www.w3.org/2000/svg">
<path d="M58.375 0.800049H5.625C4.08333 0.800049 2.76042 1.35213 1.65625 2.4563C0.552083 3.56047 0 4.88338 0 6.42505V43.925C0 45.4667 0.552083 46.7896 1.65625 47.8938C2.76042 48.998 4.08333 49.55 5.625 49.55H21.875L19.375 57.05H13.25C12.75 57.05 12.3125 57.2375 11.9375 57.6125C11.5625 57.9875 11.375 58.425 11.375 58.925C11.375 59.425 11.5625 59.8625 11.9375 60.2375C12.3125 60.6125 12.75 60.8 13.25 60.8H50.75C51.25 60.8 51.6875 60.6125 52.0625 60.2375C52.4375 59.8625 52.625 59.425 52.625 58.925C52.625 58.425 52.4375 57.9875 52.0625 57.6125C51.6875 57.2375 51.25 57.05 50.75 57.05H44.625L42.125 49.55H58.375C59.9167 49.55 61.2396 48.998 62.3438 47.8938C63.4479 46.7896 64 45.4667 64 43.925V6.42505C64 4.88338 63.4479 3.56047 62.3438 2.4563C61.2396 1.35213 59.9167 0.800049 58.375 0.800049ZM23.375 57.05L25.875 49.55H38.125L40.625 57.05H23.375ZM60.25 43.925C60.25 44.425 60.0625 44.8625 59.6875 45.2375C59.3125 45.6125 58.875 45.8 58.375 45.8C57.6667 45.8 54.6458 45.8 49.3125 45.8C44.0208 45.8 38.25 45.8 32 45.8C25.75 45.8 19.9792 45.8 14.6875 45.8C9.35417 45.8 6.33333 45.8 5.625 45.8C5.125 45.8 4.6875 45.6125 4.3125 45.2375C3.9375 44.8625 3.75 44.425 3.75 43.925V42.05H60.25V43.925ZM60.25 38.3H3.75V6.42505C3.75 5.92505 3.9375 5.48755 4.3125 5.11255C4.6875 4.73755 5.125 4.55005 5.625 4.55005H58.375C58.875 4.55005 59.3125 4.73755 59.6875 5.11255C60.0625 5.48755 60.25 5.92505 60.25 6.42505V38.3ZM37.625 10.175C37.625 10.675 37.4375 11.1125 37.0625 11.4875C36.6875 11.8625 36.25 12.05 35.75 12.05C35.25 12.05 34.8125 11.8625 34.4375 11.4875C34.0625 11.1125 33.875 10.675 33.875 10.175C33.875 9.67505 34.0625 9.23755 34.4375 8.86255C34.8125 8.48755 35.25 8.30005 35.75 8.30005C36.25 8.30005 36.6875 8.48755 37.0625 8.86255C37.4375 9.23755 37.625 9.67505 37.625 10.175ZM30.125 10.175C30.125 10.675 29.9375 11.1125 29.5625 11.4875C29.1875 11.8625 28.75 12.05 28.25 12.05C27.75 12.05 27.3125 11.8625 26.9375 11.4875C26.5625 11.1125 26.375 10.675 26.375 10.175C26.375 9.67505 26.5625 9.23755 26.9375 8.86255C27.3125 8.48755 27.75 8.30005 28.25 8.30005C28.75 8.30005 29.1875 8.48755 29.5625 8.86255C29.9375 9.23755 30.125 9.67505 30.125 10.175ZM45.125 10.175C45.125 10.675 44.9375 11.1125 44.5625 11.4875C44.1875 11.8625 43.75 12.05 43.25 12.05C42.75 12.05 42.3125 11.8625 41.9375 11.4875C41.5625 11.1125 41.375 10.675 41.375 10.175C41.375 9.67505 41.5625 9.23755 41.9375 8.86255C42.3125 8.48755 42.75 8.30005 43.25 8.30005C43.75 8.30005 44.1875 8.48755 44.5625 8.86255C44.9375 9.23755 45.125 9.67505 45.125 10.175ZM20.75 8.30005H9.5C9 8.30005 8.5625 8.48755 8.1875 8.86255C7.8125 9.23755 7.625 9.67505 7.625 10.175V32.675C7.625 33.175 7.8125 33.6125 8.1875 33.9875C8.5625 34.3625 9 34.55 9.5 34.55H20.75C21.25 34.55 21.6875 34.3625 22.0625 33.9875C22.4375 33.6125 22.625 33.175 22.625 32.675V10.175C22.625 9.67505 22.4375 9.23755 22.0625 8.86255C21.6875 8.48755 21.25 8.30005 20.75 8.30005ZM18.875 30.8H11.375V27.05H18.875V30.8ZM18.875 23.3H11.375V19.55H18.875V23.3ZM18.875 15.8H11.375V12.05H18.875V15.8ZM48.3125 27.6125C47.9375 27.2375 47.5 27.05 47 27.05C46.5 27.05 46.0625 27.2375 45.6875 27.6125L43.5625 29.7375L37.3125 20.3625C37.1458 20.1125 36.9271 19.9146 36.6562 19.7688C36.3854 19.623 36.0833 19.55 35.75 19.55C35.4167 19.55 35.1146 19.623 34.8438 19.7688C34.5729 19.9146 34.3542 20.1125 34.1875 20.3625L26.6875 31.6125C26.3958 32.0709 26.3021 32.55 26.4062 33.05C26.5104 33.55 26.7708 33.9459 27.1875 34.2375C27.6458 34.5292 28.125 34.623 28.625 34.5188C29.125 34.4146 29.5208 34.1542 29.8125 33.7375L35.75 24.8L41.6875 33.7375C41.8542 33.9459 42.0521 34.123 42.2812 34.2688C42.5104 34.4146 42.7708 34.5084 43.0625 34.55C43.3542 34.5917 43.625 34.5605 43.875 34.4563C44.125 34.3521 44.3542 34.1959 44.5625 33.9875L47 31.55L49.4375 33.9875C49.8125 34.3625 50.25 34.55 50.75 34.55C51.25 34.55 51.6875 34.3625 52.0625 33.9875C52.4375 33.6125 52.625 33.175 52.625 32.675C52.625 32.175 52.4375 31.7375 52.0625 31.3625L48.3125 27.6125ZM50.75 12.05C49.2083 12.05 47.8854 12.6021 46.7812 13.7063C45.6771 14.8105 45.125 16.1334 45.125 17.675C45.125 19.2167 45.6771 20.5396 46.7812 21.6438C47.8854 22.748 49.2083 23.3 50.75 23.3C52.2917 23.3 53.6146 22.748 54.7188 21.6438C55.8229 20.5396 56.375 19.2167 56.375 17.675C56.375 16.1334 55.8229 14.8105 54.7188 13.7063C53.6146 12.6021 52.2917 12.05 50.75 12.05ZM50.75 19.55C50.25 19.55 49.8125 19.3625 49.4375 18.9875C49.0625 18.6125 48.875 18.175 48.875 17.675C48.875 17.175 49.0625 16.7375 49.4375 16.3625C49.8125 15.9875 50.25 15.8 50.75 15.8C51.25 15.8 51.6875 15.9875 52.0625 16.3625C52.4375 16.7375 52.625 17.175 52.625 17.675C52.625 18.175 52.4375 18.6125 52.0625 18.9875C51.6875 19.3625 51.25 19.55 50.75 19.55Z" fill="#2EBB77"/>
</svg>
