<svg width="27" height="19" viewBox="0 0 27 19" fill="none" xmlns="http://www.w3.org/2000/svg">
<path d="M25.7344 2.91931C26.2969 4.88806 26.2969 9.10681 26.2969 9.10681C26.2969 9.10681 26.2969 13.2787 25.7344 15.2943C25.4531 16.4193 24.5625 17.2631 23.4844 17.5443C21.4688 18.0599 13.5 18.0599 13.5 18.0599C13.5 18.0599 5.48438 18.0599 3.46875 17.5443C2.39062 17.2631 1.5 16.4193 1.21875 15.2943C0.65625 13.2787 0.65625 9.10681 0.65625 9.10681C0.65625 9.10681 0.65625 4.88806 1.21875 2.91931C1.5 1.79431 2.39062 0.903687 3.46875 0.622437C5.48438 0.0599365 13.5 0.0599365 13.5 0.0599365C13.5 0.0599365 21.4688 0.0599365 23.4844 0.622437C24.5625 0.903687 25.4531 1.79431 25.7344 2.91931ZM10.875 12.9037L17.5312 9.10681L10.875 5.30994V12.9037Z" fill="#9B9B9B"/>
</svg>
