<svg width="22" height="22" viewBox="0 0 22 22" fill="none" xmlns="http://www.w3.org/2000/svg">
<path d="M11.5 5.66931C14.4531 5.66931 16.8906 8.10681 16.8906 11.0599C16.8906 14.0599 14.4531 16.4506 11.5 16.4506C8.5 16.4506 6.10938 14.0599 6.10938 11.0599C6.10938 8.10681 8.5 5.66931 11.5 5.66931ZM11.5 14.5756C13.4219 14.5756 14.9688 13.0287 14.9688 11.0599C14.9688 9.13806 13.4219 7.59119 11.5 7.59119C9.53125 7.59119 7.98438 9.13806 7.98438 11.0599C7.98438 13.0287 9.57812 14.5756 11.5 14.5756ZM18.3438 5.48181C18.3438 6.18494 17.7812 6.74744 17.0781 6.74744C16.375 6.74744 15.8125 6.18494 15.8125 5.48181C15.8125 4.77869 16.375 4.21619 17.0781 4.21619C17.7812 4.21619 18.3438 4.77869 18.3438 5.48181ZM21.9062 6.74744C22 8.48181 22 13.6849 21.9062 15.4193C21.8125 17.1068 21.4375 18.5599 20.2188 19.8256C19 21.0443 17.5 21.4193 15.8125 21.5131C14.0781 21.6068 8.875 21.6068 7.14062 21.5131C5.45312 21.4193 4 21.0443 2.73438 19.8256C1.51562 18.5599 1.14062 17.1068 1.04688 15.4193C0.953125 13.6849 0.953125 8.48181 1.04688 6.74744C1.14062 5.05994 1.51562 3.55994 2.73438 2.34119C4 1.12244 5.45312 0.747437 7.14062 0.653687C8.875 0.559937 14.0781 0.559937 15.8125 0.653687C17.5 0.747437 19 1.12244 20.2188 2.34119C21.4375 3.55994 21.8125 5.05994 21.9062 6.74744ZM19.6562 17.2474C20.2188 15.8881 20.0781 12.6068 20.0781 11.0599C20.0781 9.55994 20.2188 6.27869 19.6562 4.87244C19.2812 3.98181 18.5781 3.23181 17.6875 2.90369C16.2812 2.34119 13 2.48181 11.5 2.48181C9.95312 2.48181 6.67188 2.34119 5.3125 2.90369C4.375 3.27869 3.67188 3.98181 3.29688 4.87244C2.73438 6.27869 2.875 9.55994 2.875 11.0599C2.875 12.6068 2.73438 15.8881 3.29688 17.2474C3.67188 18.1849 4.375 18.8881 5.3125 19.2631C6.67188 19.8256 9.95312 19.6849 11.5 19.6849C13 19.6849 16.2812 19.8256 17.6875 19.2631C18.5781 18.8881 19.3281 18.1849 19.6562 17.2474Z" fill="#9B9B9B"/>
</svg>
