<svg width="24" height="20" viewBox="0 0 24 20" fill="none" xmlns="http://www.w3.org/2000/svg">
<path d="M21.5156 5.18494C21.5156 5.41931 21.5156 5.60681 21.5156 5.84119C21.5156 12.3568 16.5938 19.8099 7.54688 19.8099C4.73438 19.8099 2.15625 19.0131 0 17.6068C0.375 17.6537 0.75 17.7006 1.17188 17.7006C3.46875 17.7006 5.57812 16.9037 7.26562 15.5912C5.10938 15.5443 3.28125 14.1381 2.67188 12.1693C3 12.2162 3.28125 12.2631 3.60938 12.2631C4.03125 12.2631 4.5 12.1693 4.875 12.0756C2.625 11.6068 0.9375 9.63806 0.9375 7.24744V7.20056C1.59375 7.57556 2.39062 7.76306 3.1875 7.80994C1.82812 6.91931 0.984375 5.41931 0.984375 3.73181C0.984375 2.79431 1.21875 1.95056 1.64062 1.24744C4.07812 4.20056 7.73438 6.16931 11.8125 6.40369C11.7188 6.02869 11.6719 5.65369 11.6719 5.27869C11.6719 2.55994 13.875 0.356812 16.5938 0.356812C18 0.356812 19.2656 0.919312 20.2031 1.90369C21.2812 1.66931 22.3594 1.24744 23.2969 0.684937C22.9219 1.85681 22.1719 2.79431 21.1406 3.40369C22.125 3.30994 23.1094 3.02869 23.9531 2.65369C23.2969 3.63806 22.4531 4.48181 21.5156 5.18494Z" fill="#9B9B9B"/>
</svg>
