<svg width="18" height="16" viewBox="0 0 18 16" fill="none" xmlns="http://www.w3.org/2000/svg">
<path d="M8.85917 1.62496C8.26021 1.62496 7.6938 1.74215 7.15995 1.97652C6.6261 2.19788 6.1606 2.50712 5.76347 2.90426C5.36633 3.30139 5.05709 3.76689 4.83573 4.30074C4.60136 4.8346 4.48417 5.401 4.48417 5.99996C4.48417 6.59892 4.60136 7.16533 4.83573 7.69918C5.05709 8.23303 5.36633 8.69853 5.76347 9.09566C6.1606 9.4928 6.6261 9.80204 7.15995 10.0234C7.6938 10.2578 8.26021 10.375 8.85917 10.375C9.45813 10.375 10.0245 10.2578 10.5584 10.0234C11.0922 9.80204 11.5577 9.4928 11.9549 9.09566C12.352 8.69853 12.6613 8.23303 12.8826 7.69918C13.117 7.16533 13.2342 6.59892 13.2342 5.99996C13.2342 5.401 13.117 4.8346 12.8826 4.30074C12.6613 3.76689 12.352 3.30139 11.9549 2.90426C11.5577 2.50712 11.0922 2.19788 10.5584 1.97652C10.0245 1.74215 9.45813 1.62496 8.85917 1.62496ZM3.23417 5.99996C3.23417 5.21871 3.38391 4.48954 3.68339 3.81246C3.96985 3.12236 4.36698 2.5234 4.87479 2.01559C5.38261 1.50777 5.98156 1.11064 6.67167 0.82418C7.34875 0.524701 8.07792 0.374961 8.85917 0.374961C9.64042 0.374961 10.3696 0.524701 11.0467 0.82418C11.7368 1.11064 12.3357 1.50777 12.8435 2.01559C13.3514 2.5234 13.7485 3.12236 14.035 3.81246C14.3344 4.48954 14.4842 5.21871 14.4842 5.99996C14.4842 6.78121 14.3344 7.51038 14.035 8.18746C13.7485 8.87757 13.3514 9.47652 12.8435 9.98434C12.3357 10.4921 11.7368 10.8893 11.0467 11.1757C10.3696 11.4752 9.64042 11.625 8.85917 11.625C8.07792 11.625 7.34875 11.4752 6.67167 11.1757C5.98156 10.8893 5.38261 10.4921 4.87479 9.98434C4.36698 9.47652 3.96985 8.87757 3.68339 8.18746C3.38391 7.51038 3.23417 6.78121 3.23417 5.99996ZM8.85917 11.625C8.14302 11.625 7.4399 11.7161 6.74979 11.8984C6.05969 12.0807 5.40865 12.3541 4.79667 12.7187C4.18469 13.0703 3.62479 13.5 3.11698 14.0078C2.60917 14.5156 2.17948 15.0755 1.82792 15.6875C1.73677 15.8307 1.60657 15.9251 1.43729 15.9707C1.26802 16.0162 1.11177 16 0.968544 15.9218C0.825315 15.8307 0.730914 15.7005 0.685341 15.5312C0.639768 15.3619 0.656044 15.2057 0.734169 15.0625C1.15084 14.3463 1.64888 13.6985 2.22831 13.1191C2.80774 12.5397 3.45552 12.0416 4.17167 11.625C4.88782 11.2213 5.64302 10.9121 6.43729 10.6972C7.23156 10.4824 8.03886 10.375 8.85917 10.375C9.67948 10.375 10.4868 10.4824 11.281 10.6972C12.0753 10.9121 12.8305 11.2213 13.5467 11.625C14.2628 12.0416 14.9106 12.5397 15.49 13.1191C16.0695 13.6985 16.5675 14.3463 16.9842 15.0625C17.0623 15.2057 17.0786 15.3619 17.033 15.5312C16.9874 15.7005 16.893 15.8307 16.7498 15.9218C16.6066 16 16.4503 16.0162 16.281 15.9707C16.1118 15.9251 15.9816 15.8307 15.8904 15.6875C15.5389 15.0755 15.1092 14.5156 14.6014 14.0078C14.0935 13.5 13.5336 13.0703 12.9217 12.7187C12.3097 12.3541 11.6586 12.0807 10.9685 11.8984C10.2784 11.7161 9.57531 11.625 8.85917 11.625Z" fill="black"/>
</svg>
