<svg width="14" height="12" viewBox="0 0 14 12" fill="none" xmlns="http://www.w3.org/2000/svg">
<path d="M0.128906 5.83002C0.128906 5.67767 0.18457 5.54584 0.295898 5.43451C0.407227 5.32318 0.539062 5.26752 0.691406 5.26752H13.0664C13.2188 5.26752 13.3506 5.32318 13.4619 5.43451C13.5732 5.54584 13.6289 5.67767 13.6289 5.83002C13.6289 5.98236 13.5732 6.1142 13.4619 6.22552C13.3506 6.33685 13.2188 6.39252 13.0664 6.39252H0.691406C0.539062 6.39252 0.407227 6.33685 0.295898 6.22552C0.18457 6.1142 0.128906 5.98236 0.128906 5.83002ZM7.59961 0.36322C7.7168 0.257751 7.85156 0.205017 8.00391 0.205017C8.15625 0.205017 8.29102 0.257751 8.4082 0.36322L13.4707 5.42572C13.5762 5.54291 13.6289 5.67767 13.6289 5.83002C13.6289 5.98236 13.5762 6.11713 13.4707 6.23431L8.4082 11.2968C8.29102 11.4023 8.15625 11.455 8.00391 11.455C7.85156 11.455 7.7168 11.4023 7.59961 11.2968C7.49414 11.1796 7.44141 11.0449 7.44141 10.8925C7.44141 10.7402 7.49414 10.6054 7.59961 10.4882L12.2754 5.83002L7.59961 1.17181C7.49414 1.05463 7.44141 0.919861 7.44141 0.767517C7.44141 0.615173 7.49414 0.480408 7.59961 0.36322Z" fill="black"/>
</svg>
